<?xml version="1.0" encoding="UTF-8" standalone="no"?>
<!DOCTYPE svg PUBLIC "-//W3C//DTD SVG 1.1//EN" "http://www.w3.org/Graphics/SVG/1.1/DTD/svg11.dtd">
<svg width="100%" height="100%" viewBox="0 0 139 145" version="1.1" xmlns="http://www.w3.org/2000/svg" xmlns:xlink="http://www.w3.org/1999/xlink" xml:space="preserve" xmlns:serif="http://www.serif.com/" style="fill-rule:evenodd;clip-rule:evenodd;stroke-linejoin:round;stroke-miterlimit:2;">
    <g transform="matrix(1,0,0,1,-7,-5.29261)">
        <g>
            <path d="M97.1,42.3C95.6,41.1 94.6,39.4 93.2,38.1C91.7,36.8 90.1,35.6 89,34.6C84.3,40.1 80.3,45.3 75.7,50.1C70.9,55.1 65.7,59.7 58.4,60.9C54.1,61.6 50.7,64 47.8,67.5C41.3,75.2 33.5,81.2 24.1,85C18.7,87.2 12.9,89 7,91.2C13.9,98.1 21.1,104.1 32.1,103.3C29.8,104.9 24.4,112.7 18.6,117.6C16.6,119.3 14.5,120.7 11.9,122.7C15.7,122.4 18.7,122.2 22.2,122C17.1,132.9 18.9,138 20.6,149.4C20.6,149.4 31.9,112.4 47.4,108.2C47.5,115 48.8,121.3 52.7,126.8C52.9,126.7 53.1,126.6 53,126.5C53,124.9 52.9,123.3 52.9,121.7C53.5,92.8 65.4,69 85.8,49C86.3,48.5 86.8,48.1 87.4,48C89.8,47.5 92.2,47.1 94.9,46.7C95.1,51.2 92.9,54.7 90.3,58.2C90.3,58.2 84,65.5 83.3,68.1C82.6,70.6 82.2,77.4 85.6,80C85.5,78.8 85.3,77.5 85.3,76.3C85.2,71.4 90.1,64.2 91.8,63C93.3,61.9 94.9,60.9 96.5,59.8C102,55.8 102.3,46.5 97.1,42.3ZM53.8,76.9C53.5,68.6 56.4,65 62.7,67.3C59.6,70.6 56.7,73.8 53.8,76.9Z" style="fill:rgb(0,121,50);fill-rule:nonzero;"/>
            <path id="XMLID_00000037651481955640269380000006555953340320600721_" d="M106.6,70.2C106.3,67.3 104.1,65.6 101.7,66.1C99.4,66.6 95.4,72 96.8,71.8C98.5,71.7 101.9,72.3 101.9,72.3C103.1,74.2 101.3,76.3 100,77.1C97.1,78.8 94.9,81.6 91.9,83.3C87.4,85.8 82.5,87.8 77.8,90.2C72.3,92.9 71,101 75.5,105C77.1,99.8 77.7,99.1 80.4,98.9C79.9,116.6 81.9,124.9 89.3,133.1C89,132 88.7,130.9 88.4,129.8C88.1,128.6 87.8,127.4 87.6,126.2C84.7,111.8 87,98.6 96.6,87.1C98.9,84.4 101.4,81.7 104,79.2C106.5,76.6 107,73.4 106.6,70.2Z" style="fill:rgb(0,121,50);fill-rule:nonzero;"/>
        </g>
        <path d="M137.4,64.4C129.7,30.6 96,9.3 62.2,17C41.1,21.8 25,36.6 17.7,55.3C15.8,59.3 14.2,63.6 13.2,68C13.9,55.5 18.1,43.5 25.5,33.1C35.9,18.6 51.2,9.1 68.7,6.2C86.2,3.3 103.8,7.4 118.2,17.8C132.6,28.2 142.1,43.5 145,61C149.5,88.7 136.2,115.4 113.2,129C132.8,114.6 143,89.5 137.4,64.4Z" style="fill:rgb(255,192,0);fill-rule:nonzero;"/>
    </g>
</svg>
