<?xml version="1.0" encoding="utf-8"?>
<!-- Generator: Adobe Illustrator 28.0.0, SVG Export Plug-In . SVG Version: 6.00 Build 0)  -->
<svg version="1.1" xmlns="http://www.w3.org/2000/svg" xmlns:xlink="http://www.w3.org/1999/xlink" x="0px" y="0px"
	 viewBox="0 0 735.6 154.5" style="enable-background:new 0 0 735.6 154.5;" xml:space="preserve">
<style type="text/css">
	.st0{fill:#007932;}
	.st1{fill:#FFC000;}
</style>
<g id="Layer_1">
	<g>
		<g>
			<path class="st0" d="M97.1,42.3c-1.5-1.2-2.5-2.9-3.9-4.2c-1.5-1.3-3.1-2.5-4.2-3.5c-4.7,5.5-8.7,10.7-13.3,15.5
				c-4.8,5-10,9.6-17.3,10.8c-4.3,0.7-7.7,3.1-10.6,6.6C41.3,75.2,33.5,81.2,24.1,85C18.7,87.2,12.9,89,7,91.2
				c6.9,6.9,14.1,12.9,25.1,12.1c-2.3,1.6-7.7,9.4-13.5,14.3c-2,1.7-4.1,3.1-6.7,5.1c3.8-0.3,6.8-0.5,10.3-0.7
				c-5.1,10.9-3.3,16-1.6,27.4c0,0,11.3-37,26.8-41.2c0.1,6.8,1.4,13.1,5.3,18.6c0.2-0.1,0.4-0.2,0.3-0.3c0-1.6-0.1-3.2-0.1-4.8
				c0.6-28.9,12.5-52.7,32.9-72.7c0.5-0.5,1-0.9,1.6-1c2.4-0.5,4.8-0.9,7.5-1.3c0.2,4.5-2,8-4.6,11.5c0,0-6.3,7.3-7,9.9
				c-0.7,2.5-1.1,9.3,2.3,11.9c-0.1-1.2-0.3-2.5-0.3-3.7c-0.1-4.9,4.8-12.1,6.5-13.3c1.5-1.1,3.1-2.1,4.7-3.2
				C102,55.8,102.3,46.5,97.1,42.3z M53.8,76.9c-0.3-8.3,2.6-11.9,8.9-9.6C59.6,70.6,56.7,73.8,53.8,76.9z"/>
			<path id="XMLID_00000037651481955640269380000006555953340320600721_" class="st0" d="M106.6,70.2c-0.3-2.9-2.5-4.6-4.9-4.1
				c-2.3,0.5-6.3,5.9-4.9,5.7c1.7-0.1,5.1,0.5,5.1,0.5c1.2,1.9-0.6,4-1.9,4.8c-2.9,1.7-5.1,4.5-8.1,6.2c-4.5,2.5-9.4,4.5-14.1,6.9
				C72.3,92.9,71,101,75.5,105c1.6-5.2,2.2-5.9,4.9-6.1c-0.5,17.7,1.5,26,8.9,34.2c-0.3-1.1-0.6-2.2-0.9-3.3
				c-0.3-1.2-0.6-2.4-0.8-3.6c-2.9-14.4-0.6-27.6,9-39.1c2.3-2.7,4.8-5.4,7.4-7.9C106.5,76.6,107,73.4,106.6,70.2z"/>
		</g>
		<path class="st1" d="M137.4,64.4C129.7,30.6,96,9.3,62.2,17C41.1,21.8,25,36.6,17.7,55.3c-1.9,4-3.5,8.3-4.5,12.7
			c0.7-12.5,4.9-24.5,12.3-34.9C35.9,18.6,51.2,9.1,68.7,6.2s35.1,1.2,49.5,11.6C132.6,28.2,142.1,43.5,145,61
			c4.5,27.7-8.8,54.4-31.8,68C132.8,114.6,143,89.5,137.4,64.4z"/>
	</g>
	<g>
		<polygon points="233.6,88.2 221.2,49.6 209.5,49.6 196.7,87.9 184.4,49.6 171.4,49.6 189.2,104 202.7,104 215,67.1 227.1,104 
			240.5,104 258.4,49.6 246.3,49.6 		"/>
		<path d="M288.2,49.6L264,104h12.9l4.8-11.7H307l4.8,11.7H325l-24.4-54.4H288.2z M285.7,82.8l8.6-20.7l8.6,20.7H285.7z"/>
		<path d="M375.3,86.5c3.5-1.5,6.2-3.8,8.2-6.7c1.9-2.9,2.9-6.4,2.9-10.5c0-4-1-7.5-2.9-10.5c-1.9-3-4.6-5.2-8.2-6.8
			c-3.5-1.6-7.7-2.4-12.6-2.4h-23.6V104h12.7V88.8h10.9c0.2,0,0.4,0,0.6,0l10.6,15.2h13.5L375.3,86.5
			C375.2,86.5,375.2,86.5,375.3,86.5z M370.7,62.3c2,1.6,3,4,3,7c0,3-1,5.3-3,7c-2,1.7-4.9,2.5-8.7,2.5h-10.2V59.9H362
			C365.8,59.9,368.7,60.7,370.7,62.3z"/>
		<polygon points="416.6,81.3 441.8,81.3 441.8,71.5 416.6,71.5 416.6,59.7 445.2,59.7 445.2,49.6 404.1,49.6 404.1,104 446.2,104 
			446.2,93.9 416.6,93.9 		"/>
		<polygon points="522.7,88.2 510.3,49.6 498.6,49.6 485.8,87.9 473.5,49.6 460.4,49.6 478.3,104 491.8,104 504.1,67.1 516.2,104 
			529.5,104 547.4,49.6 535.4,49.6 		"/>
		<path d="M599.3,79.7c0,5.1-1.1,8.9-3.2,11.2c-2.1,2.3-5.1,3.5-8.9,3.5c-3.8,0-6.7-1.2-8.9-3.5c-2.1-2.3-3.2-6-3.2-11.2V49.6h-12.7
			V80c0,8,2.2,14.2,6.5,18.5c4.4,4.3,10.4,6.4,18.1,6.4c7.7,0,13.7-2.1,18-6.4c4.4-4.3,6.5-10.5,6.5-18.5V49.6h-12.4V79.7z"/>
		<polygon points="643.7,49.6 631.1,49.6 631.1,104 670.9,104 670.9,93.8 643.7,93.8 		"/>
		<polygon points="727.6,59.7 727.6,49.6 686.4,49.6 686.4,104 699.1,104 699.1,84.2 724.2,84.2 724.2,74.1 699.1,74.1 699.1,59.7 
					"/>
	</g>
</g>
<g id="Layer_2">
</g>
</svg>
